<?xml version="1.0" encoding="utf-8"?>
<!-- Generator: Adobe Illustrator 15.0.0, SVG Export Plug-In . SVG Version: 6.00 Build 0)  -->
<!DOCTYPE svg PUBLIC "-//W3C//DTD SVG 1.1//EN" "http://www.w3.org/Graphics/SVG/1.1/DTD/svg11.dtd">
<svg version="1.1" id="Capa_1" xmlns="http://www.w3.org/2000/svg" xmlns:xlink="http://www.w3.org/1999/xlink" x="0px" y="0px"
	 width="1327px" height="350px" viewBox="0 0 1327 350" enable-background="new 0 0 1327 350" xml:space="preserve">
<g transform="translate(0.000000,350.000000) scale(0.100000,-0.100000)">
	<path d="M10455.305,3091.001c-178.008-43.999-240-257.002-112.002-383.999c87.998-88.003,225-90,315.996-4.004
		c132.002,126.001,69.004,348.003-110,386.001C10494.299,3101.001,10498.303,3101.001,10455.305,3091.001z"/>
	<path d="M2837.297,2682.998c-3.994-37.998-18.994-273.999-33.994-525.996c-30-510-29.004-540,25.996-652.002
		c74.004-149.004,247.002-235,472.998-235c277.002,0.996,484.004,140,542.002,365.996c14.004,53.008,36.006,314.004,36.006,427.002
		V2100h-163.008h-162.998l-10.996-192.002c-11.006-202.002-21.006-247.998-66.006-297.002c-70-75.996-228.994-81.992-295.996-10
		c-12.002,13.008-29.004,47.002-37.002,76.006c-15,52.002-12.002,205.996,12.002,530.996l5.996,82.002h363.008h361.992l7.002,37.998
		c2.998,20,6.006,72.002,6.006,115V2520h-366.006h-365.996l5.996,37.998c2.998,20,7.998,72.002,12.002,115l5.996,77.002h-175
		h-173.994L2837.297,2682.998z"/>
	<path d="M8176.301,2687.998c-10.996-113.999-55.996-893.999-55.996-960.996c0-289.004,192.998-457.002,525-457.002
		c193.994,0,360,72.002,455.996,197.002c77.002,100,97.998,192.002,114.004,505.996l6.992,127.002h-165.996h-165.996v-47.002
		c-1.006-121.997-20-332.002-35-372.998c-30-84.004-98.008-130-195-130c-107.002,0-165,49.004-184.004,154.004
		c-7.002,35,5.996,372.998,20,523.994l5.996,62.002h362.002h362.998l7.002,61.001c2.998,33.999,6.006,86.001,6.006,115V2520
		h-366.006h-365.996l5.996,47.998c2.998,26.001,7.998,77.002,11.006,115l6.992,67.002h-175h-175L8176.301,2687.998z"/>
	<path d="M666.301,2533.999c-83.994-20-167.998-67.998-225.996-130l-50-52.998v85V2520h-165c-91.006,0-165-1.001-166.006-2.002
		c-5.996-20.996-63.994-1205-58.994-1210.996c3.994-4.004,82.998-6.006,175.996-5L345.305,1305l7.998,140
		c34.004,627.998,34.004,630,57.002,682.998c25.996,60,80.996,114.004,135.996,133.003c42.002,15,192.002,18.999,236.006,6.997
		c13.994-5,40-18.999,56.992-32.998c52.002-43.999,56.006-87.998,37.002-446.001c-8.994-173.003-18.994-353.003-22.002-401.001
		L847.307,1300h175.996h175l5.996,72.998c20,247.002,44.004,837.002,35,881.001c-26.992,143.003-123.994,242.002-275.996,281.001
		C892.307,2553.999,745.305,2552.998,666.301,2533.999z"/>
	<path d="M1880.305,2535c-204.004-41.001-345-146.001-430-320c-49.004-100-70-202.998-70-343.999
		c0-376.997,180.996-568.999,560.996-596.001c174.004-12.998,331.006,25,457.998,109.004
		c84.004,55.996,137.998,116.992,187.002,208.994l35,67.002h-182.998l-182.998-0.996l-20-31.006c-11.006-17.002-45-45-75-62.002
		c-51.006-28.994-62.002-30.996-150-30.996c-105,0-137.002,10.996-197.998,69.004c-47.002,42.998-73.008,100-79.004,167.998
		l-5.996,57.998h462.998h462.998l-7.002,116.001c-7.998,145-27.998,238.999-70.996,328.999c-63.008,132.002-190,226.001-350,260
		C2140.305,2552.998,1968.303,2552.998,1880.305,2535z M2151.301,2267.998c82.998-35,139.004-116.997,139.004-203.999V2030h-270
		c-305,0-284.004-7.002-250,83.999C1828.303,2267.998,1993.303,2333.999,2151.301,2267.998z"/>
	<path d="M4545.305,2543.999c-259.004-41.997-434.004-195-500-438.999c-24.004-90-31.006-312.002-11.006-402.998
		c44.004-211.006,180-352.998,387.998-409.004c85-22.998,269.004-22.998,363.008,1.006c118.994,28.994,210,80,295,165
		c78.994,80,117.998,140.996,143.994,228.994l15,52.002h-178.994h-178.008l-6.992-29.004
		c-29.004-132.998-240-212.998-366.006-138.994c-50,30-88.994,80-115,147.998c-25,63.999-25,272.998-0.996,351.001
		c25,83.999,73.994,148.999,137.002,181.001c73.994,38.999,181.992,40,258.994,1.997c56.006-27.998,96.006-76.997,107.002-131.997
		l7.002-32.002h177.998c145,0,179.004,2.998,179.004,13.999c0,7.002-5,37.002-10,66.001c-31.006,163.999-150,290-328.008,347.002
		c-62.998,20.996-100.996,25.996-211.992,27.998C4636.301,2547.002,4562.297,2546.001,4545.305,2543.999z"/>
	<path d="M5875.305,2542.998c-142.002-20-265-80-360-176.997c-125-126.001-176.006-270-176.006-491.001c0-210,42.998-340,150-445
		c106.006-105,247.998-152.002,461.006-152.998c157.998-1.006,222.998,12.002,346.992,72.998c56.006,27.998,100,59.004,140,99.004
		c55,55,133.008,170.996,133.008,197.998c0,10-40,12.998-177.002,12.998h-177.998l-22.002-34.004
		c-66.006-101.992-289.004-126.992-401.006-45c-50,36.006-100,132.002-103.994,199.004l-2.998,45l455.996,2.998l457.002,2.002
		l3.994,37.998c7.002,55-8.994,228.003-26.992,296.001c-52.002,197.002-191.006,328.999-391.006,371.001
		C6120.305,2548.999,5948.303,2552.998,5875.305,2542.998z M6110.305,2267.998c80.996-35,125.996-96.997,136.992-188.999
		l6.006-48.999h-272.002h-270.996v22.998c0.996,28.003,33.994,102.002,65.996,144.004
		C5846.301,2288.999,5990.305,2320,6110.305,2267.998z"/>
	<path d="M7386.301,2533.999c-84.004-20-167.998-67.998-225.996-130l-50-52.998v85V2520h-165c-91.006,0-165-1.001-166.006-2.002
		c-5.996-22.998-63.994-1205-58.994-1210.996c3.994-4.004,82.998-6.006,175.996-5l169.004,2.998l7.998,145
		c30,587.002,32.998,622.998,57.002,677.002c25.996,60.996,80.996,115,135.996,133.999c42.002,15,192.002,18.999,235.996,6.997
		c14.004-5,40-18.999,57.002-32.998c54.004-46.001,56.006-81.001,32.002-520c-12.002-215-20.996-395.996-20.996-402.998
		c0-9.004,43.994-12.002,175-12.002c95.996,0,175,0.996,175,2.998c0.996,1.006,10.996,202.002,23.994,447.002
		c15,280,21.006,463.999,16.006,496.001c-24.004,145-123.008,248.999-277.002,288.999
		C7612.297,2553.999,7465.305,2552.998,7386.301,2533.999z"/>
	<path d="M9981.301,2535c-74.004-17.002-159.004-63.999-207.002-117.998L9740.305,2380v70v70h-165h-165v-32.002
		c0-17.998-14.004-286.997-30-597.998c-16.006-310.996-30-570.996-30-577.002c0-10,40.996-12.998,173.994-12.998h174.004
		l5.996,72.998c2.998,39.004,10,177.998,16.006,307.002c15.996,348.999,27.998,398.999,107.998,472.002
		c57.998,51.997,127.002,72.998,243.994,72.998h97.002l5,70c2.998,38.999,7.998,112.002,11.006,162.998l5.996,92.002l-72.998-1.001
		C10078.303,2548.999,10016.301,2542.002,9981.301,2535z"/>
	<path d="M11265.305,2538.999c-206.006-33.999-349.004-136.997-435-312.998c-51.006-103.999-70-203.003-70-358.003
		c0-143.994,15.996-220,63.994-315.996c62.002-122.002,157.998-202.002,301.006-249.004c67.998-22.002,97.998-25.996,205-25.996
		c146.991-1.006,215.995,13.994,336.991,72.998c135,65.996,233.008,172.002,282.002,302.998
		c34.004,93.003,44.004,87.002-152.998,87.002h-172.998l-17.002-44.004c-19.004-48.994-80-110-130-130.996
		c-102.998-42.998-204.999-25.996-277.001,45c-58.994,59.004-80,117.998-85.996,247.002
		c-12.002,216.997,58.994,372.998,185.996,410.996c59.003,18.003,169.003,15,216.005-6.997
		c50.996-23.003,100.996-78.999,115.996-131.001l12.002-40h177.998h177.002l-5,42.998c-32.998,263.003-252.002,420-581.006,416.001
		C11358.302,2547.998,11293.303,2543.999,11265.305,2538.999z"/>
	<path d="M10296.301,2447.998c-9.004-107.998-55.996-1025.996-55.996-1090.996V1300h170c127.998,0,171.992,2.998,175,12.998
		c1.992,6.006,15,242.002,28.994,522.002c15,281.001,29.004,548.999,32.002,597.998l7.002,87.002h-176.006h-175L10296.301,2447.998z
		"/>
	<path d="M3973.303,489.004c-37.998-11.006-62.998-43.008-62.998-80c0-45,28.994-59.004,133.994-69.004
		c111.006-10.996,136.006-20.996,136.006-55c0-57.002-105-80.996-205-47.002c-43.008,15-62.002,17.002-67.002,9.004
		c-15-25,72.998-57.002,160-57.002c93.994,0,155.996,40.996,150,100.996c-5,48.008-39.004,69.004-127.998,75
		c-41.006,3.008-90,10-108.008,16.006c-27.998,7.998-32.998,13.994-30,35.996c4.004,40,70,59.004,147.002,42.998
		c84.004-16.992,86.006-16.992,86.006-0.996C4185.305,490.996,4046.301,510,3973.303,489.004z"/>
	<path d="M8201.301,477.998c-114.004-55.996-115-207.998-0.996-265c72.998-37.002,188.994-27.002,227.998,20c25,30,2.998,35-45,10
		c-81.006-42.002-184.004-18.994-219.004,47.998C8101.301,414.004,8266.301,520,8396.301,439.004
		c37.002-23.008,64.004-18.008,42.002,7.998C8395.305,499.004,8275.305,515,8201.301,477.998z"/>
	<path d="M11220.305,477.998c-112.002-57.002-121.006-185-18.008-260.996c56.006-42.002,208.007-30,249.003,18.994
		c20.996,26.006-10,36.006-39.004,14.004c-31.992-25-104.999-35-151.991-20.996c-122.002,35.996-120,198.994,2.998,231.992
		c52.002,14.004,117.997,4.004,152.001-22.998c20-15.996,28.994-17.998,37.998-8.994c8.994,10,7.002,15.996-7.998,27.998
		C11382.296,505,11291.301,514.004,11220.305,477.998z"/>
	<path d="M10.305,345V200h145c122.002,0,145,2.002,145,15s-21.006,15-130,15h-130v55v55h85c68.994,0,85,2.998,85,15
		s-16.006,15-85,15h-85v45v45h125c103.994,0,125,2.002,125,15s-22.002,15-140,15h-140V345z"/>
	<path d="M510.305,345c0-122.002,2.002-145,15-145s15,20.996,15,125c0,69.004,2.998,125,7.998,124.004
		c4.004,0,57.998-57.002,120.996-125C753.303,234.004,790.305,200,807.307,200h22.998v145c0,137.998-1.006,145-20,145
		c-17.998,0-20-7.998-22.002-125.996l-2.998-125l-115,125C588.303,454.004,549.299,490,533.303,490
		C510.305,490,510.305,489.004,510.305,345z"/>
	<path d="M1020.305,475c0-12.002,13.994-15,70-15h70V330c0-109.004,2.002-130,15-130s15,20.996,15,130v130h70
		c55.996,0,70,2.998,70,15c0,12.998-24.004,15-155,15C1044.299,490,1020.305,487.998,1020.305,475z"/>
	<path d="M1520.305,345V200h150.996c116.006,0,150,2.998,147.002,12.998c-2.998,7.998-40.996,12.998-130.996,15l-127.002,2.998V285
		v55h85c68.994,0,85,2.998,85,15s-16.006,15-85,15h-85v45v45h120c100,0,120,2.998,120,15c0,12.998-22.002,15-140,15h-140V345z"/>
	<path d="M2030.305,345c0-122.002,2.002-145,15-145c12.002,0,15,12.998,15,55v55h78.994h80l43.008-55c22.998-30,50.996-55,60-55
		c23.994,0,22.998,4.004-17.002,57.002c-19.004,25-35,48.994-35,52.002c0,2.998,12.998,11.992,30,18.994
		c50,22.998,58.994,102.002,15,140c-24.004,20-36.006,22.002-156.006,22.002h-128.994V345z M2290.305,440
		c23.994-24.004,25.996-52.998,3.994-74.004c-11.992-12.998-38.994-15.996-125-15.996h-108.994v55v55h105
		C2257.307,460,2273.303,457.002,2290.305,440z"/>
	<path d="M2570.305,345c0-137.998,0.996-145,20-145c17.998,0,20,7.002,20,54.004v53.994l115.996,4.004
		c112.002,2.998,117.002,3.994,140,30.996c32.002,37.998,32.002,90-0.996,122.002c-23.008,24.004-29.004,25-160,25h-135V345z
		 M2831.301,450c22.002-12.002,27.002-67.998,7.002-87.998c-7.998-7.998-49.004-12.002-120-12.002h-107.998v55v55h100.996
		C2766.301,460,2820.305,455,2831.301,450z"/>
	<path d="M3090.305,345c0-137.998,0.996-145,20-145c17.998,0,20,7.002,20,55v55h77.998h77.002l42.998-55
		c27.002-34.004,50.996-55,62.998-55c17.998,0,17.002,4.004-12.998,45.996c-17.998,25-36.006,48.008-40,50
		C3324.299,305,3329.299,320,3345.305,320c30,0,65,47.002,65,85c0,25-8.008,44.004-25,60c-23.008,24.004-29.004,25-160,25h-135V345z
		 M3351.301,450c22.002-12.002,27.002-67.998,7.002-87.998c-7.998-7.998-49.004-12.002-120-12.002h-107.998v55v55h100.996
		C3286.301,460,3340.305,455,3351.301,450z"/>
	<path d="M4450.305,345V200h145c121.992,0,145,2.002,145,15s-21.006,15-130,15h-130v55v55h85c68.994,0,85,2.998,85,15
		s-16.006,15-85,15h-85v45v45h125c103.994,0,125,2.002,125,15s-22.002,15-140,15h-140V345z"/>
	<path d="M5186.301,467.998c82.002-265,84.004-268.994,110.996-265.996c24.004,2.998,28.008,10.996,50,87.998
		c12.002,47.002,28.008,102.998,34.004,125l10.996,40l38.008-125c33.994-114.004,38.994-125,61.992-127.998
		c24.004-2.998,27.002,2.998,67.002,127.002c22.998,71.992,44.004,137.998,47.002,145.996c4.004,10,0,15-12.998,15
		c-16.006,0-26.006-20.996-57.998-125.996c-22.002-72.002-41.006-120-46.006-112.002c-2.998,7.002-20.996,63.994-40,125.996
		c-30.996,107.002-33.994,112.998-57.998,110c-22.002-2.998-27.002-12.998-57.002-122.002c-17.998-65-35-120-37.002-121.992
		c-1.992-2.002-20.996,51.992-41.992,120.996c-32.002,102.002-42.002,125-57.002,125S5180.305,485,5186.301,467.998z"/>
	<path d="M5810.305,345V200h150c126.992,0,150,2.002,150,15s-21.006,15-130,15h-130v55v55h85c68.994,0,85,2.998,85,15
		s-16.006,15-85,15h-85v45v45h125c103.994,0,125,2.002,125,15s-23.008,15-145,15h-145V345z"/>
	<path d="M6320.305,345V200h140c135.996,0,141.992,0.996,165,25c30.996,30,31.992,69.004,1.992,99.004
		c-22.998,22.998-22.998,23.994-5,45.996c25,30.996,23.008,65.996-6.992,95c-23.008,24.004-29.004,25-160,25h-135V345z
		 M6588.303,447.998c18.994-18.994,15-65.996-7.002-77.998c-10.996-5-67.002-10-125-10h-105.996v50v50h112.998
		C6538.303,460,6580.305,455.996,6588.303,447.998z M6591.301,320c22.002-12.002,25.996-59.004,7.002-77.998
		c-7.998-7.998-52.002-12.002-130-12.002h-117.998v50v50h110.996C6522.297,330,6580.305,325,6591.301,320z"/>
	<path d="M7150.305,345V200h150.996c115.996,0,150,2.998,147.002,12.998c-2.998,7.998-41.006,12.998-131.006,15l-126.992,2.998V285
		v55h85c68.994,0,85,2.998,85,15s-16.006,15-85,15h-85v45v45h120c100,0,120,2.998,120,15c0,12.998-22.002,15-140,15h-140V345z"/>
	<path d="M7685.305,420l67.998-70.996l-29.004-32.002c-15.996-17.998-47.002-51.006-67.998-74.004
		c-32.998-35-37.002-42.998-20.996-42.998c10.996,0,46.992,27.002,80,60l60.996,60l59.004-60c32.998-32.998,67.998-60,77.998-60
		c15,0,3.994,17.998-47.002,74.004l-65.996,73.994l65.996,71.006c54.004,57.998,62.002,70.996,45,70.996
		c-12.998,0-44.004-24.004-79.004-62.002l-57.998-60.996l-53.994,60.996c-39.004,44.004-61.006,62.002-79.004,62.002
		C7619.299,490,7624.299,482.002,7685.305,420z"/>
	<path d="M8670.305,345V200h150c126.992,0,150,2.002,150,15s-21.006,15-130,15h-130v55v55h85c68.994,0,85,2.998,85,15
		s-16.006,15-85,15h-85v45v45h125c103.994,0,125,2.002,125,15s-23.008,15-145,15h-145V345z"/>
	<path d="M9180.305,345V200h130c108.994,0,130,2.002,130,15c0,12.002-19.004,15-115,15h-115v130c0,109.004-2.002,130-15,130
		C9182.297,490,9180.305,467.002,9180.305,345z"/>
	<path d="M9630.305,345V200h130c108.994,0,130,2.002,130,15c0,12.002-19.004,15-115,15h-115v130c0,109.004-2.002,130-15,130
		C9632.297,490,9630.305,467.002,9630.305,345z"/>
	<path d="M10080.305,345V200h145c121.992,0,145,2.002,145,15s-21.006,15-125,15h-125v55v55h85c68.994,0,85,2.998,85,15
		s-16.006,15-85,15h-85v45v45h120c100,0,120,2.998,120,15c0,12.998-22.002,15-140,15h-140V345z"/>
	<path d="M10580.305,345c0-137.998,0.996-145,20-145c17.998,0,20,7.998,21.992,125.996l3.008,125l115-122.998
		c70-75.996,122.998-123.994,136.992-125.996l23.008-2.998v145c0,122.998-2.002,145.996-15,145.996c-13.008,0-15-20.996-15-127.002
		L10869.299,235l-122.002,127.998c-85.996,90-128.994,127.002-143.994,127.002C10580.305,490,10580.305,489.004,10580.305,345z"/>
	<path d="M11690.304,345V200h145c121.992,0,145,2.002,145,15s-21.006,15-131.006,15h-130l2.998,52.998l3.008,52.002l87.998,2.998
		c63.994,2.002,87.002,6.006,83.994,15c-1.992,7.998-33.994,12.998-90,15l-86.992,2.998V415v45h125c103.994,0,125,2.002,125,15
		s-22.002,15-140,15h-140V345z"/>
</g>
</svg>
