<?xml version="1.0" standalone="no"?>
<!DOCTYPE svg PUBLIC "-//W3C//DTD SVG 20010904//EN"
 "http://www.w3.org/TR/2001/REC-SVG-20010904/DTD/svg10.dtd">
<svg version="1.0" xmlns="http://www.w3.org/2000/svg"
 width="128.000000pt" height="128.000000pt" viewBox="0 0 128.000000 128.000000"
 preserveAspectRatio="xMidYMid meet">
<metadata>
Created by potrace 1.13, written by Peter Selinger 2001-2015
</metadata>
<g transform="translate(0.000000,128.000000) scale(0.100000,-0.100000)"
fill="#000000" stroke="none">
<path d="M324 1090 c-31 -12 -74 -68 -74 -96 l0 -24 396 0 397 0 -7 32 c-3 17
-14 40 -24 51 -41 45 -55 47 -369 46 -164 0 -307 -4 -319 -9z"/>
<path d="M310 554 l0 -386 29 -29 29 -29 276 0 275 0 28 24 28 24 3 391 3 391
-336 0 -335 0 0 -386z m165 -29 l0 -310 -24 -3 c-13 -2 -28 2 -32 10 -5 7 -9
144 -9 304 0 305 2 318 45 312 20 -3 20 -10 20 -313z m194 301 c8 -9 11 -100
9 -312 l-3 -299 -30 0 -30 0 -3 299 c-2 300 0 326 33 326 7 0 18 -6 24 -14z
m201 -5 c15 -29 14 -583 -2 -599 -18 -18 -46 -14 -58 7 -6 12 -10 125 -10 296
0 171 4 284 10 296 6 10 19 19 30 19 11 0 24 -9 30 -19z"/>
</g>
</svg>
